<?xml version="1.0" encoding="UTF-8" standalone="no"?>
<svg
   xmlns:dc="http://purl.org/dc/elements/1.1/"
   xmlns:cc="http://creativecommons.org/ns#"
   xmlns:rdf="http://www.w3.org/1999/02/22-rdf-syntax-ns#"
   xmlns:svg="http://www.w3.org/2000/svg"
   xmlns="http://www.w3.org/2000/svg"
   id="svg30"
   xml:space="preserve"
   viewBox="0 0 287 287"
   height="287"
   width="287"
   version="1.1"><metadata
     id="metadata34"><rdf:RDF><cc:Work
         rdf:about=""><dc:format>image/svg+xml</dc:format><dc:type
           rdf:resource="http://purl.org/dc/dcmitype/StillImage" /></cc:Work></rdf:RDF></metadata><desc
     id="desc2">Created with Fabric.js 2.4.6</desc><defs
     id="defs4" /><g
     id="g8"
     transform="matrix(1.28,0.01,0,0.34,147.97,87.97)"><path
       id="rect6"
       d="M -50,-50 H 50 V 50 H -50 Z"
       style="opacity:1;fill:#2476bf;fill-rule:nonzero;stroke:#000000;stroke-width:0;stroke-linecap:butt;stroke-linejoin:miter;stroke-miterlimit:4;stroke-dasharray:none;stroke-dashoffset:0" /></g><g
     id="g12"
     transform="matrix(2.83,0,0,2.83,143.95,143.71)"><path
       id="path10"
       d="M 50,0 0,50 h 12.5 v 50 h 75 V 50 H 100 Z M 75,87.5 H 56.25 V 68.75 H 43.75 V 87.5 H 25 V 42.676 L 50,25 75,42.676 Z"
       transform="translate(-50,-50)"
       style="opacity:1;fill:#27c6be;fill-rule:nonzero;stroke:none;stroke-width:1;stroke-linecap:butt;stroke-linejoin:miter;stroke-miterlimit:4;stroke-dasharray:none;stroke-dashoffset:0" /></g><g
     id="g16"
     transform="matrix(-0.98,0,0,-1.04,144.68,157.69)"><path
       id="path14"
       d="M 93.144,24.877 C 90.647,22.375 87.324,21 83.793,21 c -3.528,0 -6.845,1.37 -9.342,3.866 L 50.089,49.231 25.724,24.866 C 23.229,22.375 19.91,21 16.384,21 c -3.526,0 -6.845,1.375 -9.337,3.866 -5.153,5.149 -5.153,13.534 0,18.687 l 33.542,33.536 c 2.486,2.503 5.807,3.878 9.349,3.878 h 0.301 c 3.529,0 6.842,-1.369 9.329,-3.86 L 93.124,43.557 C 95.623,41.061 97,37.74 97,34.208 97,30.675 95.623,27.356 93.144,24.877 Z"
       transform="translate(-50.09,-50.98)"
       style="opacity:1;fill:#04e1d7;fill-rule:nonzero;stroke:none;stroke-width:1;stroke-linecap:butt;stroke-linejoin:miter;stroke-miterlimit:4;stroke-dasharray:none;stroke-dashoffset:0" /></g><g
     id="g20"
     transform="matrix(-0.58,0,0,-0.58,144.37,196.29)"><path
       id="path18"
       d="M 93.144,24.877 C 90.647,22.375 87.324,21 83.793,21 c -3.528,0 -6.845,1.37 -9.342,3.866 L 50.089,49.231 25.724,24.866 C 23.229,22.375 19.91,21 16.384,21 c -3.526,0 -6.845,1.375 -9.337,3.866 -5.153,5.149 -5.153,13.534 0,18.687 l 33.542,33.536 c 2.486,2.503 5.807,3.878 9.349,3.878 h 0.301 c 3.529,0 6.842,-1.369 9.329,-3.86 L 93.124,43.557 C 95.623,41.061 97,37.74 97,34.208 97,30.675 95.623,27.356 93.144,24.877 Z"
       transform="translate(-50.09,-50.98)"
       style="opacity:1;fill:#18d9d0;fill-rule:nonzero;stroke:none;stroke-width:1;stroke-linecap:butt;stroke-linejoin:miter;stroke-miterlimit:4;stroke-dasharray:none;stroke-dashoffset:0" /></g><g
     id="g24"
     transform="matrix(1.27,0,0,0.61,144.5,86.5)"><path
       id="polygon22"
       d="M 50,50 H -50 L 0,-50 Z"
       style="opacity:1;fill:#2672b9;fill-rule:nonzero;stroke:#000000;stroke-width:0;stroke-linecap:butt;stroke-linejoin:miter;stroke-miterlimit:4;stroke-dasharray:none;stroke-dashoffset:0" /></g><g
     id="g28"
     transform="matrix(1.9,0,0,1.9,144.36,185.79)"><path
       id="path26"
       d="M 50,0 C 22.386,0 0,22.386 0,50 0,77.614 22.386,100 50,100 77.614,100 100,77.614 100,50 100,22.386 77.614,0 50,0 Z m 0,14.156 C 69.799,14.156 85.844,30.2 85.844,50 85.844,69.799 69.799,85.844 50,85.844 30.201,85.844 14.156,69.799 14.156,50 14.156,30.201 30.201,14.156 50,14.156 Z"
       transform="translate(-50,-50)"
       style="opacity:1;fill:#2777b5;fill-rule:nonzero;stroke:none;stroke-width:1;stroke-linecap:butt;stroke-linejoin:miter;stroke-miterlimit:4;stroke-dasharray:none;stroke-dashoffset:0" /></g></svg>